#N canvas 64 101 437 431 12;
#X obj 166 139 mtof;
#X obj 78 136 mtof;
#N canvas 740 202 772 713 MSN-osc 1;
#X obj 55 245 *~;
#X floatatom 187 218 5 0 0 0 - - - 0;
#X obj 55 326 +~;
#X floatatom 175 261 5 0 0 0 - - - 0;
#N canvas 19 264 549 303 map-osc-amp 0;
#X obj 12 20 inlet input;
#X obj 115 20 inlet in-min;
#X obj 212 22 inlet in-max;
#X obj 300 23 inlet out-min;
#X obj 401 21 inlet out-max;
#X obj 231 243 outlet output;
#X obj 71 102 -;
#X obj 198 78 -;
#X obj 380 96 -;
#X obj 131 131 /;
#X obj 229 157 *;
#X obj 229 202 +;
#X text 333 130 Y = (X-A)/(B-A) * (D-C) + C;
#X msg 147 76 0;
#X msg 290 149 0;
#X obj 248 76 loadbang;
#X msg 408 53 1;
#X floatatom 63 142 5 0 0 0 - - - 0;
#X floatatom 133 168 5 0 0 0 - - - 0;
#X obj 248 100 t b b b b, f 11;
#X obj 270 52 bng 15 250 50 0 empty empty empty 17 7 0 10 #fcfcfc #000000 #000000;
#X obj 13 46 max \$1 \$2;
#X obj 13 73 min \$1 \$2;
#X msg 220 44 64;
#X connect 0 0 21 0;
#X connect 1 0 6 1;
#X connect 1 0 7 1;
#X connect 2 0 7 0;
#X connect 3 0 8 1;
#X connect 3 0 11 1;
#X connect 4 0 8 0;
#X connect 6 0 9 0;
#X connect 6 0 17 0;
#X connect 7 0 9 1;
#X connect 8 0 10 1;
#X connect 9 0 10 0;
#X connect 9 0 18 0;
#X connect 10 0 11 0;
#X connect 11 0 5 0;
#X connect 13 0 6 1;
#X connect 13 0 7 1;
#X connect 13 0 21 1;
#X connect 14 0 11 1;
#X connect 14 0 8 1;
#X connect 15 0 19 0;
#X connect 16 0 8 0;
#X connect 19 0 16 0;
#X connect 19 1 14 0;
#X connect 19 2 23 0;
#X connect 19 3 13 0;
#X connect 20 0 19 0;
#X connect 21 0 22 0;
#X connect 22 0 6 0;
#X connect 23 0 7 0;
#X connect 23 0 22 1;
#X restore 188 197 pd map-osc-amp;
#X floatatom 175 175 5 0 0 0 - - - 0;
#N canvas 0 23 549 303 map-osc-dc 0;
#X obj 12 20 inlet input;
#X obj 115 20 inlet in-min;
#X obj 212 22 inlet in-max;
#X obj 300 23 inlet out-min;
#X obj 401 21 inlet out-max;
#X obj 231 243 outlet output;
#X obj 71 102 -;
#X obj 198 78 -;
#X obj 380 96 -;
#X obj 131 131 /;
#X obj 229 157 *;
#X obj 229 202 +;
#X text 333 130 Y = (X-A)/(B-A) * (D-C) + C;
#X msg 147 76 0;
#X obj 248 76 loadbang;
#X msg 220 44 127;
#X floatatom 63 142 5 0 0 0 - - - 0;
#X floatatom 133 168 5 0 0 0 - - - 0;
#X obj 248 100 t b b b b, f 11;
#X obj 270 52 bng 15 250 50 0 empty empty empty 17 7 0 10 #fcfcfc #000000 #000000;
#X obj 13 46 max \$1 \$2;
#X obj 13 73 min \$1 \$2;
#X msg 290 149 1;
#X msg 408 53 -1;
#X connect 0 0 20 0;
#X connect 1 0 6 1;
#X connect 1 0 7 1;
#X connect 2 0 7 0;
#X connect 3 0 8 1;
#X connect 3 0 11 1;
#X connect 4 0 8 0;
#X connect 6 0 9 0;
#X connect 6 0 16 0;
#X connect 7 0 9 1;
#X connect 8 0 10 1;
#X connect 9 0 10 0;
#X connect 9 0 17 0;
#X connect 10 0 11 0;
#X connect 11 0 5 0;
#X connect 13 0 6 1;
#X connect 13 0 7 1;
#X connect 13 0 20 1;
#X connect 14 0 18 0;
#X connect 15 0 7 0;
#X connect 15 0 21 1;
#X connect 18 0 23 0;
#X connect 18 1 22 0;
#X connect 18 2 15 0;
#X connect 18 3 13 0;
#X connect 19 0 18 0;
#X connect 20 0 21 0;
#X connect 21 0 6 0;
#X connect 22 0 11 1;
#X connect 22 0 8 1;
#X connect 23 0 8 0;
#X restore 175 239 pd map-osc-dc;
#X obj 55 390 *~;
#X floatatom 161 371 5 0 0 0 - - - 0;
#X obj 55 612 clip~ -1 1;
#X floatatom 175 328 5 0 0 0 - - - 0;
#X obj 452 248 hsl 128 15 0 5 0 0 empty empty empty -2 -8 0 10 #fcfcfc #000000 #000000 0 1;
#X floatatom 494 269 5 0 0 0 - - - 0;
#X obj 448 269 pow 3;
#N canvas 0 23 549 303 map-osc-sqr 0;
#X obj 12 20 inlet input;
#X obj 115 20 inlet in-min;
#X obj 212 22 inlet in-max;
#X obj 300 23 inlet out-min;
#X obj 401 21 inlet out-max;
#X obj 231 243 outlet output;
#X obj 71 102 -;
#X obj 198 78 -;
#X obj 380 96 -;
#X obj 131 131 /;
#X obj 229 157 *;
#X obj 229 202 +;
#X text 333 130 Y = (X-A)/(B-A) * (D-C) + C;
#X msg 147 76 0;
#X obj 248 76 loadbang;
#X msg 220 44 127;
#X floatatom 63 142 5 0 0 0 - - - 0;
#X floatatom 133 168 5 0 0 0 - - - 0;
#X obj 248 100 t b b b b, f 11;
#X obj 270 52 bng 15 250 50 0 empty empty empty 17 7 0 10 #fcfcfc #000000 #000000;
#X obj 13 46 max \$1 \$2;
#X obj 13 73 min \$1 \$2;
#X msg 290 149 1;
#X msg 408 53 7;
#X connect 0 0 20 0;
#X connect 1 0 6 1;
#X connect 1 0 7 1;
#X connect 2 0 7 0;
#X connect 3 0 8 1;
#X connect 3 0 11 1;
#X connect 4 0 8 0;
#X connect 6 0 9 0;
#X connect 6 0 16 0;
#X connect 7 0 9 1;
#X connect 8 0 10 1;
#X connect 9 0 10 0;
#X connect 9 0 17 0;
#X connect 10 0 11 0;
#X connect 11 0 5 0;
#X connect 13 0 6 1;
#X connect 13 0 7 1;
#X connect 13 0 20 1;
#X connect 14 0 18 0;
#X connect 15 0 7 0;
#X connect 15 0 21 1;
#X connect 18 0 23 0;
#X connect 18 1 22 0;
#X connect 18 2 15 0;
#X connect 18 3 13 0;
#X connect 19 0 18 0;
#X connect 20 0 21 0;
#X connect 21 0 6 0;
#X connect 22 0 11 1;
#X connect 22 0 8 1;
#X connect 23 0 8 0;
#X restore 175 347 pd map-osc-sqr;
#X obj 55 196 osc~ 440;
#X obj 178 56 hsl 455 15 0 455 0 0 empty empty empty -2 -8 0 10 #c4fcc4 #000000 #000000 0 1;
#X floatatom 449 151 5 0 0 0 - - - 0;
#N canvas 51 217 549 303 map-sect-2 0;
#X obj 12 20 inlet input;
#X obj 115 20 inlet in-min;
#X obj 212 22 inlet in-max;
#X obj 300 23 inlet out-min;
#X obj 401 21 inlet out-max;
#X obj 231 243 outlet output;
#X obj 71 102 -;
#X obj 198 78 -;
#X obj 380 96 -;
#X obj 131 131 /;
#X obj 229 157 *;
#X obj 229 202 +;
#X text 333 130 Y = (X-A)/(B-A) * (D-C) + C;
#X obj 248 76 loadbang;
#X floatatom 63 142 5 0 0 0 - - - 0;
#X floatatom 133 168 5 0 0 0 - - - 0;
#X obj 248 100 t b b b b, f 11;
#X obj 270 52 bng 15 250 50 0 empty empty empty 17 7 0 10 #fcfcfc #000000 #000000;
#X obj 13 46 max \$1 \$2;
#X obj 13 73 min \$1 \$2;
#X msg 408 53 5;
#X msg 290 149 0;
#X msg 147 76 64;
#X msg 220 44 192;
#X connect 0 0 18 0;
#X connect 1 0 6 1;
#X connect 1 0 7 1;
#X connect 2 0 7 0;
#X connect 3 0 8 1;
#X connect 3 0 11 1;
#X connect 4 0 8 0;
#X connect 6 0 9 0;
#X connect 6 0 14 0;
#X connect 7 0 9 1;
#X connect 8 0 10 1;
#X connect 9 0 10 0;
#X connect 9 0 15 0;
#X connect 10 0 11 0;
#X connect 11 0 5 0;
#X connect 13 0 16 0;
#X connect 16 0 20 0;
#X connect 16 1 21 0;
#X connect 16 2 23 0;
#X connect 16 3 22 0;
#X connect 17 0 16 0;
#X connect 18 0 19 0;
#X connect 19 0 6 0;
#X connect 20 0 8 0;
#X connect 21 0 11 1;
#X connect 21 0 8 1;
#X connect 22 0 6 1;
#X connect 22 0 7 1;
#X connect 22 0 18 1;
#X connect 23 0 7 0;
#X connect 23 0 19 1;
#X restore 449 189 pd map-sect-2;
#X floatatom 455 217 5 0 0 0 - - - 0;
#N canvas 0 198 549 303 map-sect-3 0;
#X obj 12 20 inlet input;
#X obj 115 20 inlet in-min;
#X obj 212 22 inlet in-max;
#X obj 300 23 inlet out-min;
#X obj 401 21 inlet out-max;
#X obj 231 243 outlet output;
#X obj 71 102 -;
#X obj 198 78 -;
#X obj 380 96 -;
#X obj 131 131 /;
#X obj 229 157 *;
#X obj 229 202 +;
#X text 333 130 Y = (X-A)/(B-A) * (D-C) + C;
#X obj 248 76 loadbang;
#X floatatom 63 142 5 0 0 0 - - - 0;
#X floatatom 133 168 5 0 0 0 - - - 0;
#X obj 248 100 t b b b b, f 11;
#X obj 270 52 bng 15 250 50 0 empty empty empty 17 7 0 10 #fcfcfc #000000 #000000;
#X obj 13 46 max \$1 \$2;
#X obj 13 73 min \$1 \$2;
#X msg 290 149 0;
#X msg 408 53 31;
#X msg 147 76 192;
#X msg 220 44 320;
#X connect 0 0 18 0;
#X connect 1 0 6 1;
#X connect 1 0 7 1;
#X connect 2 0 7 0;
#X connect 3 0 8 1;
#X connect 3 0 11 1;
#X connect 4 0 8 0;
#X connect 6 0 9 0;
#X connect 6 0 14 0;
#X connect 7 0 9 1;
#X connect 8 0 10 1;
#X connect 9 0 10 0;
#X connect 9 0 15 0;
#X connect 10 0 11 0;
#X connect 11 0 5 0;
#X connect 13 0 16 0;
#X connect 16 0 21 0;
#X connect 16 1 20 0;
#X connect 16 2 23 0;
#X connect 16 3 22 0;
#X connect 17 0 16 0;
#X connect 18 0 19 0;
#X connect 19 0 6 0;
#X connect 20 0 11 1;
#X connect 20 0 8 1;
#X connect 21 0 8 0;
#X connect 22 0 6 1;
#X connect 22 0 7 1;
#X connect 22 0 18 1;
#X connect 23 0 7 0;
#X connect 23 0 19 1;
#X restore 320 179 pd map-sect-3;
#X floatatom 560 168 5 0 0 0 - - - 0;
#X obj 560 191 sel 1;
#X msg 561 212 0;
#X msg 73 280 \$1 10;
#X obj 73 303 line~;
#X msg 123 197 \$1 10;
#X obj 73 221 line~;
#X msg 72 346 \$1 10;
#X obj 72 368 line~;
#N canvas 0 23 549 303 map-midi-control 0;
#X obj 12 20 inlet input;
#X obj 115 20 inlet in-min;
#X obj 212 22 inlet in-max;
#X obj 300 23 inlet out-min;
#X obj 401 21 inlet out-max;
#X obj 231 243 outlet output;
#X obj 71 102 -;
#X obj 198 78 -;
#X obj 380 96 -;
#X obj 131 131 /;
#X obj 229 157 *;
#X obj 229 202 +;
#X text 333 130 Y = (X-A)/(B-A) * (D-C) + C;
#X msg 147 76 0;
#X msg 290 149 0;
#X obj 248 76 loadbang;
#X msg 220 44 127;
#X floatatom 63 142 5 0 0 0 - - - 0;
#X floatatom 133 168 5 0 0 0 - - - 0;
#X obj 248 100 t b b b b, f 11;
#X obj 270 52 bng 15 250 50 0 empty empty empty 17 7 0 10 #fcfcfc #000000 #000000;
#X obj 13 46 max \$1 \$2;
#X obj 13 73 min \$1 \$2;
#X msg 408 53 455;
#X connect 0 0 21 0;
#X connect 1 0 6 1;
#X connect 1 0 7 1;
#X connect 2 0 7 0;
#X connect 3 0 8 1;
#X connect 3 0 11 1;
#X connect 4 0 8 0;
#X connect 6 0 9 0;
#X connect 6 0 17 0;
#X connect 7 0 9 1;
#X connect 8 0 10 1;
#X connect 9 0 10 0;
#X connect 9 0 18 0;
#X connect 10 0 11 0;
#X connect 11 0 5 0;
#X connect 13 0 6 1;
#X connect 13 0 7 1;
#X connect 13 0 21 1;
#X connect 14 0 11 1;
#X connect 14 0 8 1;
#X connect 15 0 19 0;
#X connect 16 0 7 0;
#X connect 16 0 22 1;
#X connect 19 0 23 0;
#X connect 19 1 14 0;
#X connect 19 2 16 0;
#X connect 19 3 13 0;
#X connect 20 0 19 0;
#X connect 21 0 22 0;
#X connect 22 0 6 0;
#X connect 23 0 8 0;
#X restore 296 32 pd map-midi-control;
#X obj 296 5 inlet midi-cc;
#X obj 55 685 outlet~;
#X text 22 28 Andrew R. Brown 2018;
#X text 23 9 Max Silence to Noise (MSN) Oscillator;
#X text 151 132 pulse width;
#X obj 55 573 +~;
#N canvas 860 209 313 464 noise-crackle 0;
#X obj 146 370 *~;
#X obj 44 335 line~;
#X floatatom 121 153 5 0 0 0 - - - 0;
#X obj 161 18 noise~;
#X obj 41 102 env~;
#X floatatom 42 126 5 0 0 0 - - - 0;
#X obj 40 76 lop~ 1;
#X obj 42 151 > 50;
#X obj 80 151 < 51;
#X obj 42 178 ==;
#X obj 43 203 sel 1;
#X obj 43 229 random 30;
#X obj 103 177 *;
#X obj 102 204 *;
#X obj 124 131 hsl 128 15 0 10 0 0 empty empty empty -2 -8 0 10 #fcfcfc #000000 #000000 0 1;
#X obj 43 257 +;
#X floatatom 109 95 5 0 0 0 - - - 0;
#X obj 43 286 pack 0 0;
#X obj 118 260 + 0.2;
#X obj 122 232 / 8;
#X obj 146 401 outlet~;
#X obj 121 57 inlet lvl;
#X msg 44 311 1 \, 0 \$1;
#X obj 208 401 outlet~ noise;
#X connect 0 0 20 0;
#X connect 1 0 0 0;
#X connect 2 0 12 0;
#X connect 2 0 12 1;
#X connect 2 0 15 1;
#X connect 2 0 19 0;
#X connect 3 0 0 1;
#X connect 3 0 6 0;
#X connect 3 0 23 0;
#X connect 4 0 5 0;
#X connect 5 0 8 0;
#X connect 5 0 7 0;
#X connect 6 0 4 0;
#X connect 7 0 9 0;
#X connect 8 0 9 1;
#X connect 9 0 10 0;
#X connect 10 0 11 0;
#X connect 11 0 15 0;
#X connect 12 0 13 0;
#X connect 12 0 13 1;
#X connect 13 0 11 1;
#X connect 14 0 2 0;
#X connect 15 0 17 0;
#X connect 16 0 8 1;
#X connect 17 0 22 0;
#X connect 18 0 17 1;
#X connect 19 0 18 0;
#X connect 21 0 14 0;
#X connect 22 0 1 0;
#X restore 249 500 pd noise-crackle;
#N canvas 520 241 549 303 map-sect-4 0;
#X obj 12 20 inlet input;
#X obj 115 20 inlet in-min;
#X obj 212 22 inlet in-max;
#X obj 300 23 inlet out-min;
#X obj 401 21 inlet out-max;
#X obj 231 243 outlet output;
#X obj 71 102 -;
#X obj 198 78 -;
#X obj 380 96 -;
#X obj 131 131 /;
#X obj 229 157 *;
#X obj 229 202 +;
#X text 333 130 Y = (X-A)/(B-A) * (D-C) + C;
#X obj 248 76 loadbang;
#X floatatom 63 142 5 0 0 0 - - - 0;
#X floatatom 133 168 5 0 0 0 - - - 0;
#X obj 248 100 t b b b b, f 11;
#X obj 270 52 bng 15 250 50 0 empty empty empty 17 7 0 10 #fcfcfc #000000 #000000;
#X obj 13 46 max \$1 \$2;
#X obj 13 73 min \$1 \$2;
#X msg 290 149 0;
#X msg 408 53 10;
#X msg 147 76 320;
#X msg 224 46 455;
#X connect 0 0 18 0;
#X connect 1 0 6 1;
#X connect 1 0 7 1;
#X connect 2 0 7 0;
#X connect 3 0 8 1;
#X connect 3 0 11 1;
#X connect 4 0 8 0;
#X connect 6 0 9 0;
#X connect 6 0 14 0;
#X connect 7 0 9 1;
#X connect 8 0 10 1;
#X connect 9 0 10 0;
#X connect 9 0 15 0;
#X connect 10 0 11 0;
#X connect 11 0 5 0;
#X connect 13 0 16 0;
#X connect 16 0 21 0;
#X connect 16 1 20 0;
#X connect 16 2 23 0;
#X connect 16 3 22 0;
#X connect 17 0 16 0;
#X connect 18 0 19 0;
#X connect 19 0 6 0;
#X connect 20 0 11 1;
#X connect 20 0 8 1;
#X connect 21 0 8 0;
#X connect 22 0 6 1;
#X connect 22 0 7 1;
#X connect 22 0 18 1;
#X connect 23 0 7 0;
#X connect 23 0 19 1;
#X restore 416 321 pd map-sect-4;
#X floatatom 416 352 5 0 0 0 - - - 0;
#X obj 55 57 inlet freq;
#X floatatom 55 83 10 0 0 0 - - - 0;
#X obj 111 104 * 0.5;
#X obj 110 129 osc~;
#X obj 55 415 clip~ -1 1;
#X obj 55 475 clip~ -1 1;
#X obj 182 455 - 0;
#X msg 182 429 7;
#X obj 183 408 t b f;
#X floatatom 222 455 5 0 0 0 - - - 0;
#X obj 358 535 *~ 0;
#X obj 182 479 / 10;
#X obj 217 431 pow 0.9;
#X obj 183 503 * 1.4;
#X obj 55 441 +~ 0;
#X obj 55 174 +~;
#X obj 383 501 / 7;
#X obj 320 205 pow 2;
#X floatatom 320 231 15 0 0 0 - - - 0;
#X obj 201 153 line~;
#X obj 110 154 *~;
#X msg 264 169 \$1 10;
#X msg 100 497 \$1 10;
#X obj 100 520 line~;
#X obj 55 503 *~;
#X obj 283 479 r zero;
#X obj 453 10 loadbang;
#X msg 453 33 0;
#X obj 496 33 s zero;
#X obj 55 143 line~;
#X obj 175 84 moses 64;
#X obj 560 142 < 64;
#X floatatom 624 164 5 0 0 0 - - - 0;
#X obj 624 184 sel 1;
#X msg 626 207 0;
#X obj 624 142 < 192;
#X floatatom 559 109 5 0 0 0 - - - 0;
#X msg 592 219 0;
#X floatatom 687 166 5 0 0 0 - - - 0;
#X obj 687 186 sel 1;
#X msg 689 209 0;
#X obj 687 144 < 320;
#X obj 107 447 loadbang;
#X msg 128 474 1;
#X obj 356 323 loadbang;
#X msg 354 349 0;
#X msg 55 113 \$1 250;
#X obj 114 639 env~;
#X floatatom 115 668 5 0 0 0 - - - 0;
#X connect 0 0 2 0;
#X connect 2 0 7 0;
#X connect 3 0 24 0;
#X connect 4 0 26 0;
#X connect 4 0 1 0;
#X connect 5 0 4 0;
#X connect 5 0 6 0;
#X connect 6 0 3 0;
#X connect 7 0 44 0;
#X connect 9 0 32 0;
#X connect 9 0 87 0;
#X connect 10 0 14 0;
#X connect 11 0 12 0;
#X connect 11 0 13 0;
#X connect 13 0 10 0;
#X connect 14 0 8 0;
#X connect 14 0 28 0;
#X connect 15 0 0 0;
#X connect 16 0 70 0;
#X connect 16 0 76 0;
#X connect 17 0 20 0;
#X connect 17 0 18 0;
#X connect 17 0 38 0;
#X connect 18 0 19 0;
#X connect 19 0 11 0;
#X connect 20 0 57 0;
#X connect 21 0 22 0;
#X connect 22 0 23 0;
#X connect 22 1 77 0;
#X connect 23 0 11 0;
#X connect 23 0 19 0;
#X connect 24 0 25 0;
#X connect 25 0 2 1;
#X connect 26 0 27 0;
#X connect 27 0 0 1;
#X connect 28 0 29 0;
#X connect 29 0 7 1;
#X connect 30 0 16 0;
#X connect 31 0 30 0;
#X connect 36 0 9 0;
#X connect 37 0 36 1;
#X connect 37 1 50 0;
#X connect 38 0 39 0;
#X connect 39 0 37 0;
#X connect 39 0 48 0;
#X connect 39 0 56 0;
#X connect 40 0 41 0;
#X connect 41 0 42 0;
#X connect 41 0 86 0;
#X connect 42 0 43 0;
#X connect 43 0 60 0;
#X connect 44 0 54 0;
#X connect 45 0 64 0;
#X connect 46 0 51 0;
#X connect 47 0 46 0;
#X connect 48 0 47 0;
#X connect 48 1 52 0;
#X connect 50 0 36 1;
#X connect 51 0 53 0;
#X connect 52 0 46 1;
#X connect 52 0 49 0;
#X connect 53 0 62 0;
#X connect 54 0 45 0;
#X connect 55 0 15 0;
#X connect 56 0 50 1;
#X connect 57 0 58 0;
#X connect 58 0 61 0;
#X connect 59 0 60 1;
#X connect 60 0 55 1;
#X connect 61 0 59 0;
#X connect 62 0 63 0;
#X connect 63 0 64 1;
#X connect 64 0 36 0;
#X connect 65 0 37 0;
#X connect 66 0 67 0;
#X connect 67 0 68 0;
#X connect 67 0 16 0;
#X connect 69 0 55 0;
#X connect 70 0 5 0;
#X connect 70 1 17 0;
#X connect 71 0 21 0;
#X connect 72 0 73 0;
#X connect 73 0 74 0;
#X connect 74 0 58 0;
#X connect 75 0 72 0;
#X connect 76 0 71 0;
#X connect 76 0 75 0;
#X connect 76 0 81 0;
#X connect 77 0 3 0;
#X connect 78 0 79 0;
#X connect 79 0 80 0;
#X connect 80 0 39 0;
#X connect 81 0 78 0;
#X connect 82 0 83 0;
#X connect 83 0 62 0;
#X connect 84 0 85 0;
#X connect 85 0 39 0;
#X connect 86 0 69 0;
#X connect 87 0 88 0;
#X restore 78 242 pd MSN-osc;
#N canvas 629 41 737 705 MSN-osc 0;
#X obj 55 245 *~;
#X floatatom 187 216 5 0 0 0 - - - 0;
#X obj 55 324 +~;
#X floatatom 175 259 5 0 0 0 - - - 0;
#N canvas 19 264 549 303 map-osc-amp 0;
#X obj 12 20 inlet input;
#X obj 115 20 inlet in-min;
#X obj 212 22 inlet in-max;
#X obj 300 23 inlet out-min;
#X obj 401 21 inlet out-max;
#X obj 231 243 outlet output;
#X obj 71 102 -;
#X obj 198 78 -;
#X obj 380 96 -;
#X obj 131 131 /;
#X obj 229 157 *;
#X obj 229 202 +;
#X text 333 130 Y = (X-A)/(B-A) * (D-C) + C;
#X msg 147 76 0;
#X msg 290 149 0;
#X obj 248 76 loadbang;
#X msg 408 53 1;
#X floatatom 63 142 5 0 0 0 - - - 0;
#X floatatom 133 168 5 0 0 0 - - - 0;
#X obj 248 100 t b b b b, f 11;
#X obj 270 52 bng 15 250 50 0 empty empty empty 17 7 0 10 #fcfcfc #000000 #000000;
#X obj 13 46 max \$1 \$2;
#X obj 13 73 min \$1 \$2;
#X msg 220 44 64;
#X connect 0 0 21 0;
#X connect 1 0 6 1;
#X connect 1 0 7 1;
#X connect 2 0 7 0;
#X connect 3 0 8 1;
#X connect 3 0 11 1;
#X connect 4 0 8 0;
#X connect 6 0 9 0;
#X connect 6 0 17 0;
#X connect 7 0 9 1;
#X connect 8 0 10 1;
#X connect 9 0 10 0;
#X connect 9 0 18 0;
#X connect 10 0 11 0;
#X connect 11 0 5 0;
#X connect 13 0 6 1;
#X connect 13 0 7 1;
#X connect 13 0 21 1;
#X connect 14 0 11 1;
#X connect 14 0 8 1;
#X connect 15 0 19 0;
#X connect 16 0 8 0;
#X connect 19 0 16 0;
#X connect 19 1 14 0;
#X connect 19 2 23 0;
#X connect 19 3 13 0;
#X connect 20 0 19 0;
#X connect 21 0 22 0;
#X connect 22 0 6 0;
#X connect 23 0 7 0;
#X connect 23 0 22 1;
#X restore 188 195 pd map-osc-amp;
#X floatatom 175 173 5 0 0 0 - - - 0;
#N canvas 0 23 549 303 map-osc-dc 0;
#X obj 12 20 inlet input;
#X obj 115 20 inlet in-min;
#X obj 212 22 inlet in-max;
#X obj 300 23 inlet out-min;
#X obj 401 21 inlet out-max;
#X obj 231 243 outlet output;
#X obj 71 102 -;
#X obj 198 78 -;
#X obj 380 96 -;
#X obj 131 131 /;
#X obj 229 157 *;
#X obj 229 202 +;
#X text 333 130 Y = (X-A)/(B-A) * (D-C) + C;
#X msg 147 76 0;
#X obj 248 76 loadbang;
#X msg 220 44 127;
#X floatatom 63 142 5 0 0 0 - - - 0;
#X floatatom 133 168 5 0 0 0 - - - 0;
#X obj 248 100 t b b b b, f 11;
#X obj 270 52 bng 15 250 50 0 empty empty empty 17 7 0 10 #fcfcfc #000000 #000000;
#X obj 13 46 max \$1 \$2;
#X obj 13 73 min \$1 \$2;
#X msg 290 149 1;
#X msg 408 53 -1;
#X connect 0 0 20 0;
#X connect 1 0 6 1;
#X connect 1 0 7 1;
#X connect 2 0 7 0;
#X connect 3 0 8 1;
#X connect 3 0 11 1;
#X connect 4 0 8 0;
#X connect 6 0 9 0;
#X connect 6 0 16 0;
#X connect 7 0 9 1;
#X connect 8 0 10 1;
#X connect 9 0 10 0;
#X connect 9 0 17 0;
#X connect 10 0 11 0;
#X connect 11 0 5 0;
#X connect 13 0 6 1;
#X connect 13 0 7 1;
#X connect 13 0 20 1;
#X connect 14 0 18 0;
#X connect 15 0 7 0;
#X connect 15 0 21 1;
#X connect 18 0 23 0;
#X connect 18 1 22 0;
#X connect 18 2 15 0;
#X connect 18 3 13 0;
#X connect 19 0 18 0;
#X connect 20 0 21 0;
#X connect 21 0 6 0;
#X connect 22 0 11 1;
#X connect 22 0 8 1;
#X connect 23 0 8 0;
#X restore 175 237 pd map-osc-dc;
#X obj 55 390 *~;
#X floatatom 161 371 5 0 0 0 - - - 0;
#X obj 55 612 clip~ -1 1;
#X floatatom 175 328 5 0 0 0 - - - 0;
#X obj 452 248 hsl 128 15 0 5 0 0 empty empty empty -2 -8 0 10 #fcfcfc #000000 #000000 0 1;
#X floatatom 494 269 5 0 0 0 - - - 0;
#X obj 448 269 pow 3;
#N canvas 0 23 549 303 map-osc-sqr 0;
#X obj 12 20 inlet input;
#X obj 115 20 inlet in-min;
#X obj 212 22 inlet in-max;
#X obj 300 23 inlet out-min;
#X obj 401 21 inlet out-max;
#X obj 231 243 outlet output;
#X obj 71 102 -;
#X obj 198 78 -;
#X obj 380 96 -;
#X obj 131 131 /;
#X obj 229 157 *;
#X obj 229 202 +;
#X text 333 130 Y = (X-A)/(B-A) * (D-C) + C;
#X msg 147 76 0;
#X obj 248 76 loadbang;
#X msg 220 44 127;
#X floatatom 63 142 5 0 0 0 - - - 0;
#X floatatom 133 168 5 0 0 0 - - - 0;
#X obj 248 100 t b b b b, f 11;
#X obj 270 52 bng 15 250 50 0 empty empty empty 17 7 0 10 #fcfcfc #000000 #000000;
#X obj 13 46 max \$1 \$2;
#X obj 13 73 min \$1 \$2;
#X msg 290 149 1;
#X msg 408 53 7;
#X connect 0 0 20 0;
#X connect 1 0 6 1;
#X connect 1 0 7 1;
#X connect 2 0 7 0;
#X connect 3 0 8 1;
#X connect 3 0 11 1;
#X connect 4 0 8 0;
#X connect 6 0 9 0;
#X connect 6 0 16 0;
#X connect 7 0 9 1;
#X connect 8 0 10 1;
#X connect 9 0 10 0;
#X connect 9 0 17 0;
#X connect 10 0 11 0;
#X connect 11 0 5 0;
#X connect 13 0 6 1;
#X connect 13 0 7 1;
#X connect 13 0 20 1;
#X connect 14 0 18 0;
#X connect 15 0 7 0;
#X connect 15 0 21 1;
#X connect 18 0 23 0;
#X connect 18 1 22 0;
#X connect 18 2 15 0;
#X connect 18 3 13 0;
#X connect 19 0 18 0;
#X connect 20 0 21 0;
#X connect 21 0 6 0;
#X connect 22 0 11 1;
#X connect 22 0 8 1;
#X connect 23 0 8 0;
#X restore 175 347 pd map-osc-sqr;
#X obj 55 196 osc~ 440;
#X obj 178 56 hsl 455 15 0 455 0 0 empty empty empty -2 -8 0 10 #c4fcc4 #000000 #000000 0 1;
#X floatatom 449 151 5 0 0 0 - - - 0;
#N canvas 51 217 549 303 map-sect-2 0;
#X obj 12 20 inlet input;
#X obj 115 20 inlet in-min;
#X obj 212 22 inlet in-max;
#X obj 300 23 inlet out-min;
#X obj 401 21 inlet out-max;
#X obj 231 243 outlet output;
#X obj 71 102 -;
#X obj 198 78 -;
#X obj 380 96 -;
#X obj 131 131 /;
#X obj 229 157 *;
#X obj 229 202 +;
#X text 333 130 Y = (X-A)/(B-A) * (D-C) + C;
#X obj 248 76 loadbang;
#X floatatom 63 142 5 0 0 0 - - - 0;
#X floatatom 133 168 5 0 0 0 - - - 0;
#X obj 248 100 t b b b b, f 11;
#X obj 270 52 bng 15 250 50 0 empty empty empty 17 7 0 10 #fcfcfc #000000 #000000;
#X obj 13 46 max \$1 \$2;
#X obj 13 73 min \$1 \$2;
#X msg 408 53 5;
#X msg 290 149 0;
#X msg 147 76 64;
#X msg 220 44 192;
#X connect 0 0 18 0;
#X connect 1 0 6 1;
#X connect 1 0 7 1;
#X connect 2 0 7 0;
#X connect 3 0 8 1;
#X connect 3 0 11 1;
#X connect 4 0 8 0;
#X connect 6 0 9 0;
#X connect 6 0 14 0;
#X connect 7 0 9 1;
#X connect 8 0 10 1;
#X connect 9 0 10 0;
#X connect 9 0 15 0;
#X connect 10 0 11 0;
#X connect 11 0 5 0;
#X connect 13 0 16 0;
#X connect 16 0 20 0;
#X connect 16 1 21 0;
#X connect 16 2 23 0;
#X connect 16 3 22 0;
#X connect 17 0 16 0;
#X connect 18 0 19 0;
#X connect 19 0 6 0;
#X connect 20 0 8 0;
#X connect 21 0 11 1;
#X connect 21 0 8 1;
#X connect 22 0 6 1;
#X connect 22 0 7 1;
#X connect 22 0 18 1;
#X connect 23 0 7 0;
#X connect 23 0 19 1;
#X restore 449 189 pd map-sect-2;
#X floatatom 455 217 5 0 0 0 - - - 0;
#N canvas 0 198 549 303 map-sect-3 0;
#X obj 12 20 inlet input;
#X obj 115 20 inlet in-min;
#X obj 212 22 inlet in-max;
#X obj 300 23 inlet out-min;
#X obj 401 21 inlet out-max;
#X obj 231 243 outlet output;
#X obj 71 102 -;
#X obj 198 78 -;
#X obj 380 96 -;
#X obj 131 131 /;
#X obj 229 157 *;
#X obj 229 202 +;
#X text 333 130 Y = (X-A)/(B-A) * (D-C) + C;
#X obj 248 76 loadbang;
#X floatatom 63 142 5 0 0 0 - - - 0;
#X floatatom 133 168 5 0 0 0 - - - 0;
#X obj 248 100 t b b b b, f 11;
#X obj 270 52 bng 15 250 50 0 empty empty empty 17 7 0 10 #fcfcfc #000000 #000000;
#X obj 13 46 max \$1 \$2;
#X obj 13 73 min \$1 \$2;
#X msg 290 149 0;
#X msg 408 53 31;
#X msg 147 76 192;
#X msg 220 44 320;
#X connect 0 0 18 0;
#X connect 1 0 6 1;
#X connect 1 0 7 1;
#X connect 2 0 7 0;
#X connect 3 0 8 1;
#X connect 3 0 11 1;
#X connect 4 0 8 0;
#X connect 6 0 9 0;
#X connect 6 0 14 0;
#X connect 7 0 9 1;
#X connect 8 0 10 1;
#X connect 9 0 10 0;
#X connect 9 0 15 0;
#X connect 10 0 11 0;
#X connect 11 0 5 0;
#X connect 13 0 16 0;
#X connect 16 0 21 0;
#X connect 16 1 20 0;
#X connect 16 2 23 0;
#X connect 16 3 22 0;
#X connect 17 0 16 0;
#X connect 18 0 19 0;
#X connect 19 0 6 0;
#X connect 20 0 11 1;
#X connect 20 0 8 1;
#X connect 21 0 8 0;
#X connect 22 0 6 1;
#X connect 22 0 7 1;
#X connect 22 0 18 1;
#X connect 23 0 7 0;
#X connect 23 0 19 1;
#X restore 320 179 pd map-sect-3;
#X floatatom 560 168 5 0 0 0 - - - 0;
#X obj 560 191 sel 1;
#X msg 560 216 0;
#X msg 73 278 \$1 10;
#X obj 73 301 line~;
#X msg 123 197 \$1 10;
#X obj 73 221 line~;
#X msg 72 346 \$1 10;
#X obj 72 368 line~;
#N canvas 0 23 549 303 map-midi-control 0;
#X obj 12 20 inlet input;
#X obj 115 20 inlet in-min;
#X obj 212 22 inlet in-max;
#X obj 300 23 inlet out-min;
#X obj 401 21 inlet out-max;
#X obj 231 243 outlet output;
#X obj 71 102 -;
#X obj 198 78 -;
#X obj 380 96 -;
#X obj 131 131 /;
#X obj 229 157 *;
#X obj 229 202 +;
#X text 333 130 Y = (X-A)/(B-A) * (D-C) + C;
#X msg 147 76 0;
#X msg 290 149 0;
#X obj 248 76 loadbang;
#X msg 220 44 127;
#X floatatom 63 142 5 0 0 0 - - - 0;
#X floatatom 133 168 5 0 0 0 - - - 0;
#X obj 248 100 t b b b b, f 11;
#X obj 270 52 bng 15 250 50 0 empty empty empty 17 7 0 10 #fcfcfc #000000 #000000;
#X obj 13 46 max \$1 \$2;
#X obj 13 73 min \$1 \$2;
#X msg 408 53 455;
#X connect 0 0 21 0;
#X connect 1 0 6 1;
#X connect 1 0 7 1;
#X connect 2 0 7 0;
#X connect 3 0 8 1;
#X connect 3 0 11 1;
#X connect 4 0 8 0;
#X connect 6 0 9 0;
#X connect 6 0 17 0;
#X connect 7 0 9 1;
#X connect 8 0 10 1;
#X connect 9 0 10 0;
#X connect 9 0 18 0;
#X connect 10 0 11 0;
#X connect 11 0 5 0;
#X connect 13 0 6 1;
#X connect 13 0 7 1;
#X connect 13 0 21 1;
#X connect 14 0 11 1;
#X connect 14 0 8 1;
#X connect 15 0 19 0;
#X connect 16 0 7 0;
#X connect 16 0 22 1;
#X connect 19 0 23 0;
#X connect 19 1 14 0;
#X connect 19 2 16 0;
#X connect 19 3 13 0;
#X connect 20 0 19 0;
#X connect 21 0 22 0;
#X connect 22 0 6 0;
#X connect 23 0 8 0;
#X restore 296 32 pd map-midi-control;
#X obj 296 5 inlet midi-cc;
#X obj 55 685 outlet~;
#X text 22 28 Andrew R. Brown 2018;
#X text 23 9 Max Silence to Noise (MSN) Oscillator;
#X text 151 132 pulse width;
#X obj 55 573 +~;
#N canvas 860 209 313 464 noise-crackle 0;
#X obj 146 370 *~;
#X obj 44 335 line~;
#X floatatom 121 153 5 0 0 0 - - - 0;
#X obj 161 18 noise~;
#X obj 41 102 env~;
#X floatatom 42 126 5 0 0 0 - - - 0;
#X obj 40 76 lop~ 1;
#X obj 42 151 > 50;
#X obj 80 151 < 51;
#X obj 42 178 ==;
#X obj 43 203 sel 1;
#X obj 43 229 random 30;
#X obj 103 177 *;
#X obj 102 204 *;
#X obj 124 131 hsl 128 15 0 10 0 0 empty empty empty -2 -8 0 10 #fcfcfc #000000 #000000 0 1;
#X obj 43 257 +;
#X floatatom 109 95 5 0 0 0 - - - 0;
#X obj 43 286 pack 0 0;
#X obj 118 260 + 0.2;
#X obj 122 232 / 8;
#X obj 146 401 outlet~;
#X obj 121 57 inlet lvl;
#X msg 44 311 1 \, 0 \$1;
#X obj 208 401 outlet~ noise;
#X connect 0 0 20 0;
#X connect 1 0 0 0;
#X connect 2 0 12 0;
#X connect 2 0 12 1;
#X connect 2 0 15 1;
#X connect 2 0 19 0;
#X connect 3 0 0 1;
#X connect 3 0 6 0;
#X connect 3 0 23 0;
#X connect 4 0 5 0;
#X connect 5 0 8 0;
#X connect 5 0 7 0;
#X connect 6 0 4 0;
#X connect 7 0 9 0;
#X connect 8 0 9 1;
#X connect 9 0 10 0;
#X connect 10 0 11 0;
#X connect 11 0 15 0;
#X connect 12 0 13 0;
#X connect 12 0 13 1;
#X connect 13 0 11 1;
#X connect 14 0 2 0;
#X connect 15 0 17 0;
#X connect 16 0 8 1;
#X connect 17 0 22 0;
#X connect 18 0 17 1;
#X connect 19 0 18 0;
#X connect 21 0 14 0;
#X connect 22 0 1 0;
#X restore 249 500 pd noise-crackle;
#N canvas 520 241 549 303 map-sect-4 0;
#X obj 12 20 inlet input;
#X obj 115 20 inlet in-min;
#X obj 212 22 inlet in-max;
#X obj 300 23 inlet out-min;
#X obj 401 21 inlet out-max;
#X obj 231 243 outlet output;
#X obj 71 102 -;
#X obj 198 78 -;
#X obj 380 96 -;
#X obj 131 131 /;
#X obj 229 157 *;
#X obj 229 202 +;
#X text 333 130 Y = (X-A)/(B-A) * (D-C) + C;
#X obj 248 76 loadbang;
#X floatatom 63 142 5 0 0 0 - - - 0;
#X floatatom 133 168 5 0 0 0 - - - 0;
#X obj 248 100 t b b b b, f 11;
#X obj 270 52 bng 15 250 50 0 empty empty empty 17 7 0 10 #fcfcfc #000000 #000000;
#X obj 13 46 max \$1 \$2;
#X obj 13 73 min \$1 \$2;
#X msg 290 149 0;
#X msg 408 53 10;
#X msg 147 76 320;
#X msg 224 46 455;
#X connect 0 0 18 0;
#X connect 1 0 6 1;
#X connect 1 0 7 1;
#X connect 2 0 7 0;
#X connect 3 0 8 1;
#X connect 3 0 11 1;
#X connect 4 0 8 0;
#X connect 6 0 9 0;
#X connect 6 0 14 0;
#X connect 7 0 9 1;
#X connect 8 0 10 1;
#X connect 9 0 10 0;
#X connect 9 0 15 0;
#X connect 10 0 11 0;
#X connect 11 0 5 0;
#X connect 13 0 16 0;
#X connect 16 0 21 0;
#X connect 16 1 20 0;
#X connect 16 2 23 0;
#X connect 16 3 22 0;
#X connect 17 0 16 0;
#X connect 18 0 19 0;
#X connect 19 0 6 0;
#X connect 20 0 11 1;
#X connect 20 0 8 1;
#X connect 21 0 8 0;
#X connect 22 0 6 1;
#X connect 22 0 7 1;
#X connect 22 0 18 1;
#X connect 23 0 7 0;
#X connect 23 0 19 1;
#X restore 416 321 pd map-sect-4;
#X floatatom 416 352 5 0 0 0 - - - 0;
#X obj 55 57 inlet freq;
#X floatatom 55 83 10 0 0 0 - - - 0;
#X obj 110 105 * 0.5;
#X obj 110 129 osc~;
#X obj 55 415 clip~ -1 1;
#X obj 55 475 clip~ -1 1;
#X obj 182 455 - 0;
#X obj 183 408 t b f;
#X floatatom 222 455 5 0 0 0 - - - 0;
#X obj 358 528 *~ 0;
#X obj 182 479 / 10;
#X obj 217 431 pow 0.9;
#X obj 183 503 * 1.4;
#X obj 55 441 +~ 0;
#X obj 55 174 +~;
#X obj 383 501 / 7;
#X obj 320 205 pow 2;
#X floatatom 320 231 15 0 0 0 - - - 0;
#X obj 201 153 line~;
#X obj 110 154 *~;
#X msg 264 169 \$1 10;
#X msg 100 497 \$1 10;
#X obj 100 520 line~;
#X obj 55 503 *~;
#X obj 283 479 r zero;
#X obj 453 10 loadbang;
#X msg 453 33 0;
#X obj 496 33 s zero;
#X obj 55 143 line~;
#X obj 175 84 moses 64;
#X obj 560 142 < 64;
#X floatatom 624 168 5 0 0 0 - - - 0;
#X obj 624 191 sel 1;
#X msg 624 216 0;
#X obj 624 142 < 192;
#X floatatom 560 105 5 0 0 0 - - - 0;
#X msg 594 226 0;
#X floatatom 687 166 5 0 0 0 - - - 0;
#X obj 687 186 sel 1;
#X msg 689 209 0;
#X obj 687 144 < 320;
#X floatatom 191 538 5 0 0 0 - - - 0;
#X msg 182 429 7;
#X obj 104 449 loadbang;
#X msg 132 475 1;
#X msg 55 113 \$1 200;
#X obj 129 644 env~;
#X floatatom 130 669 5 0 0 0 - - - 0;
#X connect 0 0 2 0;
#X connect 2 0 7 0;
#X connect 3 0 24 0;
#X connect 4 0 26 0;
#X connect 4 0 1 0;
#X connect 5 0 4 0;
#X connect 5 0 6 0;
#X connect 6 0 3 0;
#X connect 7 0 44 0;
#X connect 9 0 32 0;
#X connect 9 0 86 0;
#X connect 10 0 14 0;
#X connect 11 0 12 0;
#X connect 11 0 13 0;
#X connect 13 0 10 0;
#X connect 14 0 8 0;
#X connect 14 0 28 0;
#X connect 15 0 0 0;
#X connect 16 0 69 0;
#X connect 16 0 75 0;
#X connect 17 0 20 0;
#X connect 17 0 18 0;
#X connect 17 0 38 0;
#X connect 18 0 19 0;
#X connect 19 0 11 0;
#X connect 20 0 56 0;
#X connect 21 0 22 0;
#X connect 22 0 23 0;
#X connect 22 1 76 0;
#X connect 23 0 11 0;
#X connect 23 0 19 0;
#X connect 24 0 25 0;
#X connect 25 0 2 1;
#X connect 26 0 27 0;
#X connect 27 0 0 1;
#X connect 28 0 29 0;
#X connect 29 0 7 1;
#X connect 30 0 16 0;
#X connect 31 0 30 0;
#X connect 36 0 9 0;
#X connect 37 0 36 1;
#X connect 37 1 49 0;
#X connect 38 0 39 0;
#X connect 39 0 37 0;
#X connect 39 0 47 0;
#X connect 39 0 55 0;
#X connect 40 0 41 0;
#X connect 41 0 42 0;
#X connect 41 0 85 0;
#X connect 42 0 43 0;
#X connect 43 0 59 0;
#X connect 44 0 53 0;
#X connect 45 0 63 0;
#X connect 46 0 50 0;
#X connect 47 0 82 0;
#X connect 47 1 51 0;
#X connect 49 0 36 1;
#X connect 50 0 52 0;
#X connect 51 0 46 1;
#X connect 51 0 48 0;
#X connect 52 0 61 0;
#X connect 52 0 81 0;
#X connect 53 0 45 0;
#X connect 54 0 15 0;
#X connect 55 0 49 1;
#X connect 56 0 57 0;
#X connect 57 0 60 0;
#X connect 58 0 59 1;
#X connect 59 0 54 1;
#X connect 60 0 58 0;
#X connect 61 0 62 0;
#X connect 62 0 63 1;
#X connect 63 0 36 0;
#X connect 64 0 37 0;
#X connect 65 0 66 0;
#X connect 66 0 67 0;
#X connect 66 0 16 0;
#X connect 68 0 54 0;
#X connect 69 0 5 0;
#X connect 69 1 17 0;
#X connect 70 0 21 0;
#X connect 71 0 72 0;
#X connect 72 0 73 0;
#X connect 73 0 57 0;
#X connect 74 0 71 0;
#X connect 75 0 70 0;
#X connect 75 0 74 0;
#X connect 75 0 80 0;
#X connect 76 0 3 0;
#X connect 77 0 78 0;
#X connect 78 0 79 0;
#X connect 79 0 39 0;
#X connect 80 0 77 0;
#X connect 82 0 46 0;
#X connect 83 0 84 0;
#X connect 84 0 61 0;
#X connect 85 0 68 0;
#X connect 86 0 87 0;
#X restore 166 245 pd MSN-osc;
#X obj 78 278 *~;
#X obj 78 345 *~;
#X obj 100 320 hsl 162 19 0 1 0 0 empty empty Volume -2 -10 0 12 #fcfcfc #000000 #000000 0 1;
#X obj 81 73 hsl 162 19 0 127 0 0 empty empty Pitch\ 1 -2 -10 0 12 #fcfcfc #000000 #000000 0 1;
#X obj 168 111 hsl 162 19 0 127 0 0 empty empty Pitch\ 2 -2 -10 0 12 #fcfcfc #000000 #000000 0 1;
#X obj 148 180 hsl 162 19 0 127 0 0 empty empty Wave\ 1 -2 -10 0 12 #fcfcfc #000000 #000000 0 1;
#X obj 236 219 hsl 162 19 0 127 0 0 empty empty Wave\ 2 -2 -10 0 12 #fcfcfc #000000 #000000 0 1;
#X text 78 29 Andrew R. Brown 2018;
#X text 79 10 Max Silence to Noise (MSN) Oscillator;
#X obj 78 376 dac~;
#X connect 0 0 3 0;
#X connect 1 0 2 0;
#X connect 2 0 4 0;
#X connect 3 0 4 1;
#X connect 4 0 5 0;
#X connect 5 0 13 0;
#X connect 5 0 13 1;
#X connect 6 0 5 1;
#X connect 7 0 1 0;
#X connect 8 0 0 0;
#X connect 9 0 2 1;
#X connect 10 0 3 1;
